<svg width="20" height="21" viewBox="0 0 20 21" fill="none" xmlns="http://www.w3.org/2000/svg">
<circle cx="10" cy="10.0059" r="10" fill="#777777"/>
<path d="M14.0833 13.8H5.91667V7.2H14.0833V13.8ZM12.3333 3V4.2H7.66667V3H6.5V4.2H5.91667C5.26917 4.2 4.75 4.734 4.75 5.4V13.8C4.75 14.1183 4.87292 14.4235 5.09171 14.6485C5.3105 14.8736 5.60725 15 5.91667 15H14.0833C14.3928 15 14.6895 14.8736 14.9083 14.6485C15.1271 14.4235 15.25 14.1183 15.25 13.8V5.4C15.25 4.734 14.725 4.2 14.0833 4.2H13.5V3H12.3333ZM12.9167 9.6H10V12.6H12.9167V9.6Z" fill="white"/>
</svg>
