<svg width="24" height="24" viewBox="0 0 24 24" fill="none" xmlns="http://www.w3.org/2000/svg">
<path d="M11.7692 15.5211C12.7394 15.5211 13.5689 15.1768 14.2574 14.4883C14.946 13.7997 15.2903 12.9703 15.2903 12C15.2903 11.0297 14.946 10.2003 14.2574 9.51174C13.5689 8.82316 12.7394 8.47887 11.7692 8.47887C10.7989 8.47887 9.96949 8.82316 9.28091 9.51174C8.59233 10.2003 8.24804 11.0297 8.24804 12C8.24804 12.9703 8.59233 13.7997 9.28091 14.4883C9.96949 15.1768 10.7989 15.5211 11.7692 15.5211ZM19.234 12.9859L21.3466 14.6291C21.5657 14.7856 21.597 15.0047 21.4405 15.2864L19.4218 18.7606C19.2966 18.9797 19.0931 19.0423 18.8114 18.9484L16.3232 17.9624C15.6659 18.4319 15.1025 18.7606 14.633 18.9484L14.2574 21.5775C14.1948 21.8592 14.0383 22 13.788 22H9.75039C9.5 22 9.34351 21.8592 9.28091 21.5775L8.90532 18.9484C8.31064 18.698 7.74726 18.3693 7.21518 17.9624L4.72692 18.9484C4.44523 19.0423 4.24179 18.9797 4.11659 18.7606L2.09781 15.2864C1.94131 15.0047 1.97261 14.7856 2.19171 14.6291L4.30438 12.9859C4.27308 12.7668 4.25743 12.4382 4.25743 12C4.25743 11.5618 4.27308 11.2332 4.30438 11.0141L2.19171 9.37089C1.97261 9.2144 1.94131 8.99531 2.09781 8.71361L4.11659 5.23944C4.24179 5.02034 4.44523 4.95775 4.72692 5.05164L7.21518 6.03756C7.87246 5.56807 8.43584 5.23944 8.90532 5.05164L9.28091 2.42254C9.34351 2.14084 9.5 2 9.75039 2H13.788C14.0383 2 14.1948 2.14084 14.2574 2.42254L14.633 5.05164C15.2277 5.30204 15.7911 5.63067 16.3232 6.03756L18.8114 5.05164C19.0931 4.95775 19.2966 5.02034 19.4218 5.23944L21.4405 8.71361C21.597 8.99531 21.5657 9.2144 21.3466 9.37089L19.234 11.0141C19.2653 11.2332 19.2809 11.5618 19.2809 12C19.2809 12.4382 19.2653 12.7668 19.234 12.9859Z" fill="#444444"/>
</svg>
