<svg width="24" height="24" viewBox="0 0 24 24" fill="none" xmlns="http://www.w3.org/2000/svg">
<path fill-rule="evenodd" clip-rule="evenodd" d="M4 3V6H7V3H4ZM3.5 2C3.22386 2 3 2.22386 3 2.5V6.5C3 6.77614 3.22386 7 3.5 7H7.5C7.77614 7 8 6.77614 8 6.5V2.5C8 2.22386 7.77614 2 7.5 2H3.5ZM9 3.5C9 3.22386 9.22386 3 9.5 3H20.5C20.7761 3 21 3.22386 21 3.5C21 3.77614 20.7761 4 20.5 4H9.5C9.22386 4 9 3.77614 9 3.5ZM9.5 5C9.22386 5 9 5.22386 9 5.5C9 5.77614 9.22386 6 9.5 6H18.5C18.7761 6 19 5.77614 19 5.5C19 5.22386 18.7761 5 18.5 5H9.5Z" fill="#444444"/>
<path fill-rule="evenodd" clip-rule="evenodd" d="M4 10V13H7V10H4ZM3.5 9C3.22386 9 3 9.22386 3 9.5V13.5C3 13.7761 3.22386 14 3.5 14H7.5C7.77614 14 8 13.7761 8 13.5V9.5C8 9.22386 7.77614 9 7.5 9H3.5ZM9 10.5C9 10.2239 9.22386 10 9.5 10H20.5C20.7761 10 21 10.2239 21 10.5C21 10.7761 20.7761 11 20.5 11H9.5C9.22386 11 9 10.7761 9 10.5ZM9.5 12C9.22386 12 9 12.2239 9 12.5C9 12.7761 9.22386 13 9.5 13H18.5C18.7761 13 19 12.7761 19 12.5C19 12.2239 18.7761 12 18.5 12H9.5Z" fill="#444444"/>
<path fill-rule="evenodd" clip-rule="evenodd" d="M4 17V20H7V17H4ZM3.5 16C3.22386 16 3 16.2239 3 16.5V20.5C3 20.7761 3.22386 21 3.5 21H7.5C7.77614 21 8 20.7761 8 20.5V16.5C8 16.2239 7.77614 16 7.5 16H3.5ZM9 17.5C9 17.2239 9.22386 17 9.5 17H20.5C20.7761 17 21 17.2239 21 17.5C21 17.7761 20.7761 18 20.5 18H9.5C9.22386 18 9 17.7761 9 17.5ZM9.5 19C9.22386 19 9 19.2239 9 19.5C9 19.7761 9.22386 20 9.5 20H18.5C18.7761 20 19 19.7761 19 19.5C19 19.2239 18.7761 19 18.5 19H9.5Z" fill="#444444"/>
</svg>
