<svg width="20" height="20" viewBox="0 0 20 20" fill="none" xmlns="http://www.w3.org/2000/svg">
<path d="M13.5733 9.5114L8.84757 4.40599C8.68759 4.24644 8.50299 4.16667 8.29378 4.16667C8.08456 4.16667 7.89997 4.24644 7.73998 4.40599C7.57999 4.57883 7.5 4.77826 7.5 5.00428C7.5 5.2303 7.57999 5.42973 7.73998 5.60257L11.9119 10.1097L7.73998 14.6168C7.57999 14.7897 7.5 14.9891 7.5 15.2151C7.5 15.4411 7.57999 15.6406 7.73998 15.8134C7.82613 15.9065 7.90919 15.9729 7.98919 16.0128C8.06918 16.0527 8.17071 16.0727 8.29378 16.0727C8.41684 16.0727 8.51837 16.0527 8.59837 16.0128C8.67836 15.9729 8.76143 15.9065 8.84757 15.8134L13.5733 10.708C13.7333 10.5351 13.8133 10.3357 13.8133 10.1097C13.8133 9.88367 13.7333 9.68424 13.5733 9.5114Z" fill="#444444"/>
</svg>
