<svg width="24" height="24" viewBox="0 0 24 24" fill="none" xmlns="http://www.w3.org/2000/svg">
<path d="M6.86076 4.55696H22V6.68354H6.86076V4.55696ZM6.86076 13.1646V11.038H22V13.1646H6.86076ZM6.86076 19.6456V17.519H22V19.6456H6.86076ZM3.62025 17.1646C4.02532 17.1646 4.37131 17.2996 4.65823 17.5696C4.94515 17.8397 5.08861 18.1772 5.08861 18.5823C5.08861 18.9873 4.94515 19.3249 4.65823 19.5949C4.37131 19.865 4.02532 20 3.62025 20C3.21519 20 2.87764 19.865 2.60759 19.5949C2.33755 19.3249 2.20253 18.9873 2.20253 18.5823C2.20253 18.1772 2.33755 17.8397 2.60759 17.5696C2.87764 17.2996 3.21519 17.1646 3.62025 17.1646ZM3.62025 4C4.05907 4 4.43882 4.1519 4.75949 4.4557C5.08017 4.7595 5.24051 5.14768 5.24051 5.62025C5.24051 6.09283 5.08017 6.48101 4.75949 6.78481C4.43882 7.08861 4.05907 7.24051 3.62025 7.24051C3.18143 7.24051 2.80169 7.08861 2.48101 6.78481C2.16034 6.48101 2 6.09283 2 5.62025C2 5.14768 2.16034 4.7595 2.48101 4.4557C2.80169 4.1519 3.18143 4 3.62025 4ZM3.62025 10.481C4.05907 10.481 4.43882 10.6329 4.75949 10.9367C5.08017 11.2405 5.24051 11.6287 5.24051 12.1013C5.24051 12.5738 5.08017 12.962 4.75949 13.2658C4.43882 13.5696 4.05907 13.7215 3.62025 13.7215C3.18143 13.7215 2.80169 13.5696 2.48101 13.2658C2.16034 12.962 2 12.5738 2 12.1013C2 11.6287 2.16034 11.2405 2.48101 10.9367C2.80169 10.6329 3.18143 10.481 3.62025 10.481Z" fill="#444444"/>
</svg>
