<svg width="20" height="21" viewBox="0 0 20 21" fill="none" xmlns="http://www.w3.org/2000/svg">
<circle cx="10" cy="10.0059" r="10" fill="#777777"/>
<path fill-rule="evenodd" clip-rule="evenodd" d="M16.4419 11.7266L14.9825 11.9844L16.608 12.8203C16.742 12.888 16.8279 12.9883 16.8658 13.1211C16.9036 13.2539 16.8847 13.3802 16.809 13.5C16.7274 13.6198 16.6138 13.6966 16.4681 13.7305C16.3225 13.7643 16.1827 13.7474 16.0486 13.6797L14.4231 12.8516L14.9038 14.1016C14.9795 14.2995 14.9446 14.4648 14.7989 14.5977C14.6533 14.7305 14.477 14.7839 14.2702 14.7578C14.0634 14.7318 13.9221 14.6224 13.8464 14.4297L12.955 12.0859L10.5866 10.8672V13.3125L12.4044 15.1719C12.4976 15.2656 12.5471 15.3672 12.5529 15.4766C12.5588 15.5859 12.5267 15.681 12.4568 15.7617C12.3869 15.8425 12.3039 15.9076 12.2077 15.957C12.1116 16.0065 12.0038 16.0208 11.8844 16C11.765 15.9792 11.6586 15.9219 11.5654 15.8281L10.5866 14.8281V16.5C10.5866 16.6354 10.5313 16.7526 10.4206 16.8516C10.3099 16.9505 10.1788 17 10.0273 17C9.87583 17 9.74474 16.9505 9.63404 16.8516C9.52334 16.7526 9.46799 16.6354 9.46799 16.5V14.8281L8.4892 15.8281C8.39598 15.9219 8.28965 15.9792 8.17022 16C8.05078 16.0208 7.943 16.0065 7.84686 15.957C7.75073 15.9076 7.66771 15.8425 7.5978 15.7617C7.52788 15.681 7.49584 15.5859 7.50166 15.4766C7.50749 15.3672 7.55701 15.2656 7.65023 15.1719L9.46799 13.3125V10.8672L7.09966 12.0859L6.20826 14.4297C6.13252 14.6224 5.99123 14.7318 5.7844 14.7578C5.57757 14.7839 5.40133 14.7305 5.25568 14.5977C5.11002 14.4648 5.07507 14.2995 5.15081 14.1016L5.63147 12.8516L4.00597 13.6797C3.87196 13.7474 3.73214 13.7643 3.58648 13.7305C3.44083 13.6966 3.32722 13.6198 3.24565 13.5C3.16991 13.3802 3.15098 13.2539 3.18885 13.1211C3.22672 12.9883 3.31265 12.888 3.44665 12.8203L5.07215 11.9844L3.6127 11.7266C3.44374 11.6953 3.32139 11.6198 3.24565 11.5C3.16991 11.3802 3.14515 11.2591 3.17137 11.1367C3.19759 11.0143 3.27187 10.9102 3.39422 10.8242C3.51657 10.7383 3.66222 10.7109 3.83118 10.7422L6.54035 11.2266L8.90868 10L6.54035 8.77344L3.83118 9.25782C3.80788 9.26302 3.77001 9.26563 3.71757 9.26563C3.56026 9.26563 3.43209 9.21875 3.33304 9.125C3.234 9.03125 3.17865 8.92709 3.167 8.8125C3.15535 8.69792 3.18739 8.58594 3.26313 8.47657C3.33887 8.36719 3.45539 8.29948 3.6127 8.27344L5.07215 8.01563L3.44665 7.17969C3.31265 7.11198 3.22672 7.01172 3.18885 6.87891C3.15098 6.7461 3.16991 6.6198 3.24565 6.5C3.32139 6.38021 3.435 6.30209 3.58648 6.26563C3.73796 6.22917 3.87779 6.2474 4.00597 6.32032L5.63147 7.14844L5.15081 5.89844C5.07507 5.70052 5.11002 5.53516 5.25568 5.40235C5.40133 5.26954 5.57757 5.21615 5.7844 5.24219C5.99123 5.26823 6.13252 5.37761 6.20826 5.57032L7.09966 7.91407L9.46799 9.13282V6.6875L7.65023 4.82813C7.55701 4.73438 7.50749 4.63282 7.50166 4.52344C7.49584 4.41407 7.52788 4.31901 7.5978 4.23828C7.66771 4.15756 7.75073 4.09245 7.84686 4.04297C7.943 3.99349 8.05078 3.97917 8.17022 4C8.28965 4.02084 8.39598 4.07813 8.4892 4.17188L9.46799 5.17188V3.5C9.46799 3.36459 9.52334 3.2474 9.63404 3.14844C9.74474 3.04948 9.87583 3 10.0273 3C10.1788 3 10.3099 3.04948 10.4206 3.14844C10.5313 3.2474 10.5866 3.36459 10.5866 3.5V5.17188L11.5654 4.17188C11.6586 4.07813 11.765 4.02084 11.8844 4C12.0038 3.97917 12.1116 3.99349 12.2077 4.04297C12.3039 4.09245 12.3869 4.15756 12.4568 4.23828C12.5267 4.31901 12.5588 4.41407 12.5529 4.52344C12.5471 4.63282 12.4976 4.73438 12.4044 4.82813L10.5866 6.6875V9.13282L12.955 7.91407L13.8464 5.57032C13.9221 5.37761 14.0634 5.26823 14.2702 5.24219C14.477 5.21615 14.6533 5.26954 14.7989 5.40235C14.9446 5.53516 14.9795 5.70052 14.9038 5.89844L14.4231 7.14844L16.0486 6.32032C16.1827 6.25261 16.3225 6.23568 16.4681 6.26954C16.6138 6.30339 16.7274 6.38021 16.809 6.5C16.8847 6.6198 16.9036 6.7461 16.8658 6.87891C16.8279 7.01172 16.742 7.11198 16.608 7.17969L14.9825 8.01563L16.4419 8.27344C16.5992 8.29948 16.7157 8.36719 16.7915 8.47657C16.8672 8.58594 16.8993 8.69792 16.8876 8.8125C16.876 8.92709 16.8206 9.03125 16.7216 9.125C16.6225 9.21875 16.4943 9.26563 16.337 9.26563C16.2846 9.26563 16.2467 9.26302 16.2234 9.25782L13.5143 8.77344L11.1459 10L13.5143 11.2266L16.2234 10.7422C16.3924 10.7109 16.538 10.7383 16.6604 10.8242C16.7827 10.9102 16.857 11.0143 16.8832 11.1367C16.9095 11.2591 16.8847 11.3802 16.809 11.5C16.7332 11.6198 16.6109 11.6953 16.4419 11.7266Z" fill="white"/>
</svg>

