<svg width="24" height="24" viewBox="0 0 24 24" fill="none" xmlns="http://www.w3.org/2000/svg">
<path fill-rule="evenodd" clip-rule="evenodd" d="M20.5841 14.4665L18.6517 14.8348L20.8039 16.029C20.9814 16.1257 21.0951 16.269 21.1453 16.4587C21.1954 16.6484 21.1704 16.8289 21.0701 17C20.9621 17.1711 20.8117 17.2809 20.6188 17.3292C20.426 17.3776 20.2408 17.3534 20.0634 17.2567L17.9112 16.0737L18.5476 17.8594C18.6479 18.1421 18.6016 18.3783 18.4087 18.5681C18.2159 18.7578 17.9825 18.8341 17.7087 18.7969C17.4348 18.7597 17.2478 18.6034 17.1475 18.3281L15.9672 14.9799L12.8315 13.2388V16.7321L15.2382 19.3884C15.3617 19.5223 15.4272 19.6674 15.435 19.8237C15.4427 19.9799 15.4002 20.1157 15.3077 20.231C15.2151 20.3464 15.1052 20.4394 14.9779 20.51C14.8506 20.5807 14.7079 20.6012 14.5498 20.5714C14.3916 20.5417 14.2508 20.4598 14.1274 20.3259L12.8315 18.8973V21.2857C12.8315 21.4792 12.7582 21.6466 12.6116 21.7879C12.465 21.9293 12.2915 22 12.0909 22C11.8903 22 11.7168 21.9293 11.5702 21.7879C11.4236 21.6466 11.3504 21.4792 11.3504 21.2857V18.8973L10.0544 20.3259C9.93097 20.4598 9.79019 20.5417 9.63205 20.5714C9.47391 20.6012 9.3312 20.5807 9.20392 20.51C9.07664 20.4394 8.96671 20.3464 8.87415 20.231C8.78158 20.1157 8.73915 19.9799 8.74687 19.8237C8.75458 19.6674 8.82015 19.5223 8.94357 19.3884L11.3504 16.7321V13.2388L8.2146 14.9799L7.03434 18.3281C6.93406 18.6034 6.747 18.7597 6.47315 18.7969C6.19929 18.8341 5.96595 18.7578 5.77309 18.5681C5.58024 18.3783 5.53396 18.1421 5.63424 17.8594L6.27065 16.0737L4.11843 17.2567C3.941 17.3534 3.75587 17.3776 3.56302 17.3292C3.37016 17.2809 3.21974 17.1711 3.11174 17C3.01146 16.8289 2.98639 16.6484 3.03653 16.4587C3.08667 16.269 3.20045 16.1257 3.37788 16.029L5.5301 14.8348L3.59773 14.4665C3.37402 14.4219 3.21203 14.314 3.11174 14.1429C3.01146 13.9717 2.97868 13.7987 3.01339 13.6239C3.0481 13.449 3.14646 13.3002 3.30845 13.1775C3.47045 13.0547 3.6633 13.0156 3.88701 13.0603L7.47404 13.7522L10.6098 12L7.47404 10.2478L3.88701 10.9397C3.85615 10.9472 3.80601 10.9509 3.73658 10.9509C3.5283 10.9509 3.35859 10.8839 3.22745 10.75C3.09632 10.6161 3.02303 10.4673 3.0076 10.3036C2.99218 10.1399 3.0346 9.97991 3.13489 9.82366C3.23517 9.66741 3.38945 9.57069 3.59773 9.53348L5.5301 9.16518L3.37788 7.97098C3.20045 7.87426 3.08667 7.73103 3.03653 7.5413C2.98639 7.35156 3.01146 7.17113 3.11174 7C3.21203 6.82887 3.36245 6.71726 3.56302 6.66518C3.76358 6.6131 3.94872 6.63914 4.11843 6.7433L6.27065 7.92634L5.63424 6.14062C5.53396 5.85789 5.58024 5.62165 5.77309 5.43192C5.96595 5.24219 6.19929 5.16592 6.47315 5.20312C6.747 5.24033 6.93406 5.39657 7.03434 5.67188L8.2146 9.02009L11.3504 10.7612V7.26786L8.94357 4.61161C8.82015 4.47768 8.75458 4.33259 8.74687 4.17634C8.73915 4.02009 8.78158 3.8843 8.87415 3.76897C8.96671 3.65365 9.07664 3.56064 9.20392 3.48995C9.3312 3.41927 9.47391 3.39881 9.63205 3.42857C9.79019 3.45833 9.93097 3.54018 10.0544 3.67411L11.3504 5.10268V2.71428C11.3504 2.52083 11.4236 2.35342 11.5702 2.21205C11.7168 2.07069 11.8903 2 12.0909 2C12.2915 2 12.465 2.07069 12.6116 2.21205C12.7582 2.35342 12.8315 2.52083 12.8315 2.71428V5.10268L14.1274 3.67411C14.2508 3.54018 14.3916 3.45833 14.5498 3.42857C14.7079 3.39881 14.8506 3.41927 14.9779 3.48995C15.1052 3.56064 15.2151 3.65365 15.3077 3.76897C15.4002 3.8843 15.4427 4.02009 15.435 4.17634C15.4272 4.33259 15.3617 4.47768 15.2382 4.61161L12.8315 7.26786V10.7612L15.9672 9.02009L17.1475 5.67188C17.2478 5.39657 17.4348 5.24033 17.7087 5.20312C17.9825 5.16592 18.2159 5.24219 18.4087 5.43192C18.6016 5.62165 18.6479 5.85789 18.5476 6.14062L17.9112 7.92634L20.0634 6.7433C20.2408 6.64658 20.426 6.6224 20.6188 6.67076C20.8117 6.71912 20.9621 6.82887 21.0701 7C21.1704 7.17113 21.1954 7.35156 21.1453 7.5413C21.0951 7.73103 20.9814 7.87426 20.8039 7.97098L18.6517 9.16518L20.5841 9.53348C20.7924 9.57069 20.9467 9.66741 21.0469 9.82366C21.1472 9.97991 21.1896 10.1399 21.1742 10.3036C21.1588 10.4673 21.0855 10.6161 20.9544 10.75C20.8232 10.8839 20.6535 10.9509 20.4452 10.9509C20.3758 10.9509 20.3257 10.9472 20.2948 10.9397L16.7078 10.2478L13.572 12L16.7078 13.7522L20.2948 13.0603C20.5185 13.0156 20.7114 13.0547 20.8734 13.1775C21.0354 13.3002 21.1337 13.449 21.1684 13.6239C21.2031 13.7987 21.1704 13.9717 21.0701 14.1429C20.9698 14.314 20.8078 14.4219 20.5841 14.4665Z" fill="#444444"/>
</svg>
