<svg width="20" height="21" viewBox="0 0 20 21" fill="none" xmlns="http://www.w3.org/2000/svg">
<circle cx="10" cy="10.0059" r="10" fill="#777777"/>
<path fill-rule="evenodd" clip-rule="evenodd" d="M11.8753 6.21938C12.3753 5.72298 12.6253 5.14385 12.6253 4.48199C12.6253 3.82012 12.3753 3.241 11.8753 2.7446C11.3753 2.2482 10.792 2 10.1253 2C9.45863 2 8.8753 2.2482 8.3753 2.7446C7.87529 3.241 7.6253 3.82012 7.6253 4.48199C7.6253 5.14385 7.87529 5.72298 8.3753 6.21938C8.8753 6.71578 9.45863 6.96397 10.1253 6.96397C10.792 6.96397 11.3753 6.71578 11.8753 6.21938ZM14.375 13.9136C14.375 12.0314 13.9531 10.5681 13.1094 9.52356C12.2656 8.47906 11.2292 7.95681 10 7.95681C8.77083 7.95681 7.73438 8.47906 6.89062 9.52356C6.04687 10.5681 5.625 12.0314 5.625 13.9136C5.625 14.7616 6.35416 15.3666 7.8125 15.7285C9.27084 16.0905 10.7292 16.0905 12.1875 15.7285C13.6458 15.3666 14.375 14.7616 14.375 13.9136Z" fill="white"/>
</svg>
