<svg width="20" height="21" viewBox="0 0 20 21" fill="none" xmlns="http://www.w3.org/2000/svg">
<circle cx="10" cy="10.0059" r="10" fill="#777777"/>
<path fill-rule="evenodd" clip-rule="evenodd" d="M17.9923 13.4785C17.0489 13.4785 16.4353 12.9843 15.9904 12.5855C15.6146 12.2474 15.3845 12.022 14.8169 12.022C14.2493 12.022 14.0038 12.2474 13.6357 12.5855C13.1908 12.9843 12.6462 13.4785 11.6107 13.4785C10.5676 13.4785 10.023 12.9843 9.58581 12.5855C9.20997 12.2474 8.96453 12.022 8.39693 12.022C7.82934 12.022 7.58389 12.2474 7.20805 12.5855C6.77085 12.9843 6.2186 13.4785 5.18313 13.4785C4.13998 13.4785 3.61074 12.9843 3.17354 12.5855C2.7977 12.2474 2.46788 12.022 2 12.022V10.5047C2.94343 10.5047 3.57239 10.9989 4.00959 11.3977C4.38543 11.7359 4.6232 11.9613 5.1908 11.9613C5.75839 11.9613 6.00384 11.7359 6.372 11.3977C6.8092 10.9989 7.36146 10.5047 8.39693 10.5047C9.44008 10.5047 9.98466 10.9989 10.4219 11.3977C10.7977 11.7359 11.0431 11.9613 11.6107 11.9613C12.1783 11.9613 12.4314 11.7359 12.7996 11.3977C13.2368 10.9989 13.7891 10.5047 14.8322 10.5047C15.8754 10.5047 16.3893 10.9989 16.8341 11.3977C17.21 11.7359 17.5244 11.9613 18 11.9613V13.4785H17.9923Z" fill="white"/>
<path fill-rule="evenodd" clip-rule="evenodd" d="M15.9904 9.08075C15.6146 8.74263 15.3845 8.51721 14.8169 8.51721C14.2493 8.51721 14.0038 8.74263 13.6357 9.08075C13.1908 9.47956 12.6462 9.97374 11.6107 9.97374C10.5676 9.97374 10.023 9.47956 9.58581 9.08075C9.20997 8.74263 8.96453 8.51721 8.39693 8.51721C7.82934 8.51721 7.58389 8.74263 7.20805 9.08075C6.77085 9.47956 6.2186 9.97374 5.18313 9.97374C4.13998 9.97374 3.61074 9.47956 3.17354 9.08075C2.7977 8.74263 2.46788 8.51721 2 8.51721V7C2.94343 7 3.57239 7.49418 4.00959 7.89299C4.38543 8.23111 4.6232 8.45652 5.1908 8.45652C5.75839 8.45652 6.00384 8.23111 6.372 7.89299C6.8092 7.49418 7.36146 7 8.39693 7C9.44008 7 9.98466 7.49418 10.4219 7.89299C10.7977 8.23111 11.0431 8.45652 11.6107 8.45652C12.1783 8.45652 12.4314 8.23111 12.7996 7.89299C13.2368 7.49418 13.7891 7 14.8322 7C15.8754 7 16.3893 7.49418 16.8341 7.89299C17.21 8.23111 17.5244 8.45652 18 8.45652V9.97374C17.0489 9.97374 16.4353 9.47956 15.9904 9.08075Z" fill="white"/>
</svg>
