<svg width="20" height="21" viewBox="0 0 20 21" fill="none" xmlns="http://www.w3.org/2000/svg">
<circle cx="10" cy="10.0059" r="10" fill="#777777"/>
<path d="M5.80887 12.7859L7.85531 11.6208V10.1853L7.41392 9.32969C7.41392 9.32969 7.70631 8.63815 7.17047 8.0556C6.63462 7.47305 5.80887 7.58474 5.80887 7.58474L3.79651 8.28629L3.00002 10.1853L3.79651 11.6208L5.80887 12.7859Z" fill="white"/>
<path d="M10.105 5.28336L9.15003 4.77363V4.14561L9.35601 3.77128C9.35601 3.77128 9.21956 3.46873 9.46962 3.21387C9.71968 2.959 10.105 3.00787 10.105 3.00787L11.0441 3.3148L11.4158 4.14561L11.0441 4.77363L10.105 5.28336Z" fill="white"/>
<path d="M9.49385 9.52386L10.8991 8.97393C10.8991 8.97393 11.092 8.35607 11.092 8.06847C11.092 7.74715 10.8505 7.20039 10.5597 6.83887C10.2689 6.47734 10.0237 6.61308 9.49385 6.61308C9.09572 6.61308 8.51813 6.78034 8.29194 7.42374C8.06574 8.06714 8.29194 8.72121 8.29194 8.72121L9.49385 9.52386Z" fill="white"/>
<path d="M13.8165 4.30481L15.6903 5.09915C15.6903 5.09915 15.9474 5.99161 15.9474 6.40704C15.9474 6.87117 15.6254 7.66092 15.2377 8.18313C14.85 8.70533 14.5229 8.50927 13.8165 8.50927C13.2857 8.50927 12.5156 8.26766 12.214 7.33831C11.9124 6.40895 12.214 5.46418 12.214 5.46418L13.8165 4.30481Z" fill="white"/>
<path d="M11.3077 17.0264L14.2267 15.8878L14.6313 14.5496L15.6238 13.4727L14.4512 10.8506L11.9239 9.8501C11.9239 9.8501 10.6537 10.2566 10.1571 10.6891C9.66047 11.1216 9.25769 12.1721 9.25769 12.1721L7.85532 13.1622L8.78018 15.8878L11.3077 17.0264Z" fill="white"/>
</svg>
