<svg width="8" height="2" viewBox="0 0 8 2" fill="none" xmlns="http://www.w3.org/2000/svg">
<path fill-rule="evenodd" clip-rule="evenodd" d="M7.99616 1.73924C7.52445 1.73924 7.21764 1.49215 6.99521 1.29275C6.80729 1.12369 6.69223 1.01098 6.40844 1.01098C6.12464 1.01098 6.00192 1.12369 5.81783 1.29275C5.5954 1.49215 5.32311 1.73924 4.80537 1.73924C4.2838 1.73924 4.01151 1.49215 3.79291 1.29275C3.60499 1.12369 3.48226 1.01098 3.19847 1.01098C2.91467 1.01098 2.79195 1.12369 2.60403 1.29275C2.38543 1.49215 2.1093 1.73924 1.59156 1.73924C1.06999 1.73924 0.805369 1.49215 0.586769 1.29275C0.398849 1.12369 0.233941 1.01098 0 1.01098V0.252373C0.471716 0.252373 0.786194 0.499462 1.00479 0.698867C1.19271 0.867928 1.3116 0.980635 1.5954 0.980635C1.87919 0.980635 2.00192 0.867928 2.186 0.698867C2.4046 0.499462 2.68073 0.252373 3.19847 0.252373C3.72004 0.252373 3.99233 0.499462 4.21093 0.698867C4.39885 0.867928 4.52157 0.980635 4.80537 0.980635C5.08917 0.980635 5.21572 0.867928 5.39981 0.698867C5.61841 0.499462 5.89454 0.252373 6.41611 0.252373C6.93768 0.252373 7.19463 0.499462 7.41707 0.698867C7.60499 0.867928 7.76222 0.980635 8 0.980635V1.73924H7.99616Z" fill="white"/>
</svg>
