<svg width="24" height="25" viewBox="0 0 24 25" fill="none" xmlns="http://www.w3.org/2000/svg">
<g opacity="0.5">
<circle cx="12" cy="12.8882" r="12" fill="#DEDEDE"/>
<circle cx="12" cy="12.8882" r="12" stroke="#959595"/>
</g>
<path d="M10.7968 15.8734H12.9178C12.6238 13.1644 15.8998 12.2194 15.8998 9.55241C15.8998 7.26341 14.3248 6.06641 12.1408 6.06641C10.5658 6.06641 9.26384 6.82241 8.33984 7.89341L9.68384 9.13241C10.2928 8.46041 10.9858 8.04041 11.8468 8.04041C12.9178 8.04041 13.5478 8.71241 13.5478 9.72041C13.5478 11.6104 10.3558 12.8074 10.7968 15.8734ZM11.8678 20.6404C12.7498 20.6404 13.4428 19.9474 13.4428 19.0024C13.4428 18.0574 12.7498 17.3644 11.8678 17.3644C10.9858 17.3644 10.3138 18.0574 10.3138 19.0024C10.3138 19.9474 10.9858 20.6404 11.8678 20.6404Z" fill="#757575"/>
</svg>
