<svg width="26" height="38" viewBox="0 0 26 38" fill="none" xmlns="http://www.w3.org/2000/svg">
<path d="M13.6236 0.6875C16.9477 0.6875 19.7759 1.92013 22.1082 4.38544C24.4405 6.85074 25.6066 9.84023 25.6066 13.354C25.6066 15.1109 25.1911 17.1228 24.36 19.3897C23.529 21.6567 22.5237 23.7819 21.3442 25.7655C20.1646 27.7491 18.9985 29.6051 17.8458 31.3336C16.6931 33.0622 15.7146 34.4365 14.9104 35.4566L13.6236 36.9018C13.3019 36.5051 12.873 35.9809 12.3368 35.3291C11.8007 34.6774 10.8356 33.3739 9.44162 31.4186C8.04762 29.4634 6.82789 27.5649 5.78239 25.723C4.73689 23.8811 3.78523 21.7983 2.92739 19.4747C2.06954 17.1511 1.64062 15.1109 1.64062 13.354C1.64062 9.84023 2.80674 6.85074 5.13901 4.38544C7.47128 1.92013 10.2994 0.6875 13.6236 0.6875Z" fill="#055066"/>
<path d="M13.6244 11.3429C14.2136 11.3429 14.7235 11.5634 15.1541 12.0045C15.5847 12.4455 15.8 12.9679 15.8 13.5714C15.8 14.175 15.5847 14.6973 15.1541 15.1384C14.7235 15.5795 14.2136 15.8 13.6244 15.8C13.0352 15.8 12.5252 15.5795 12.0947 15.1384C11.6641 14.6973 11.4488 14.175 11.4488 13.5714C11.4488 12.9679 11.6641 12.4455 12.0947 12.0045C12.5252 11.5634 13.0352 11.3429 13.6244 11.3429ZM13.6244 17.2973C14.6216 17.2973 15.4771 16.9317 16.191 16.2004C16.9048 15.4692 17.2618 14.5929 17.2618 13.5714C17.2618 12.55 16.9048 11.6737 16.191 10.9424C15.4771 10.2112 14.6216 9.84554 13.6244 9.84554C12.6272 9.84554 11.7717 10.2112 11.0578 10.9424C10.3439 11.6737 9.98701 12.55 9.98701 13.5714C9.98701 14.5929 10.3439 15.4692 11.0578 16.2004C11.7717 16.9317 12.6272 17.2973 13.6244 17.2973ZM13.6244 8C15.4148 8 17.0351 8.51071 18.4856 9.53214C19.936 10.5536 20.9785 11.9 21.613 13.5714C20.9785 15.2429 19.936 16.5893 18.4856 17.6107C17.0351 18.6321 15.4148 19.1429 13.6244 19.1429C11.834 19.1429 10.2136 18.6321 8.76321 17.6107C7.31279 16.5893 6.2703 15.2429 5.63574 13.5714C6.2703 11.9 7.31279 10.5536 8.76321 9.53214C10.2136 8.51071 11.834 8 13.6244 8Z" fill="white"/>
</svg>
