<svg width="24" height="36" viewBox="0 0 24 36" fill="none" xmlns="http://www.w3.org/2000/svg">
<path d="M12 0C15.3289 0 18.1611 1.22534 20.4966 3.67606C22.8322 6.12677 24 9.09857 24 12.5915C24 14.338 23.5839 16.338 22.7517 18.5915C21.9195 20.8451 20.9128 22.9577 19.7315 24.9296C18.5503 26.9014 17.3826 28.7465 16.2282 30.4648C15.0738 32.1831 14.094 33.5493 13.2886 34.5634L12 36C11.6779 35.6056 11.2483 35.0845 10.7114 34.4366C10.1745 33.7887 9.20806 32.493 7.81208 30.5493C6.4161 28.6056 5.19464 26.7183 4.14765 24.8873C3.10067 23.0563 2.14766 20.9859 1.28859 18.6761C0.429526 16.3662 0 14.338 0 12.5915C0 9.09857 1.16777 6.12677 3.50336 3.67606C5.83894 1.22534 8.67112 0 12 0Z" fill="white"/>
<circle cx="12" cy="11" r="4" fill="#044962"/>
<path d="M13.5 14H10.5L12 23L13.5 14Z" fill="#044962"/>
</svg>
