<svg width="24" height="24" viewBox="0 0 24 24" fill="none" xmlns="http://www.w3.org/2000/svg">
<path fill-rule="evenodd" clip-rule="evenodd" d="M23.0433 14.9598L20.5413 15.4018L23.3279 16.8348C23.5576 16.9509 23.705 17.1228 23.7699 17.3505C23.8348 17.5781 23.8023 17.7946 23.6725 18C23.5327 18.2054 23.3379 18.3371 23.0882 18.3951C22.8385 18.4531 22.5988 18.4241 22.3691 18.308L19.5825 16.8884L20.4065 19.0313C20.5364 19.3705 20.4764 19.654 20.2267 19.8817C19.977 20.1094 19.6749 20.2009 19.3204 20.1563C18.9658 20.1116 18.7236 19.9241 18.5937 19.5938L17.0656 15.5759L13.0056 13.4866V17.6786L16.1218 20.8661C16.2816 21.0268 16.3665 21.2009 16.3765 21.3884C16.3865 21.5759 16.3315 21.7388 16.2117 21.8772C16.0918 22.0156 15.9495 22.1272 15.7847 22.2121C15.6199 22.2969 15.4351 22.3214 15.2304 22.2857C15.0256 22.25 14.8434 22.1518 14.6836 21.9911L13.0056 20.2768V23.1429C13.0056 23.375 12.9107 23.5759 12.721 23.7455C12.5312 23.9152 12.3065 24 12.0468 24C11.7871 24 11.5624 23.9152 11.3726 23.7455C11.1829 23.5759 11.088 23.375 11.088 23.1429V20.2768L9.41005 21.9911C9.25024 22.1518 9.06797 22.25 8.86322 22.2857C8.65847 22.3214 8.4737 22.2969 8.3089 22.2121C8.1441 22.1272 8.00178 22.0156 7.88193 21.8772C7.76207 21.7388 7.70714 21.5759 7.71713 21.3884C7.72712 21.2009 7.81201 21.0268 7.97182 20.8661L11.088 17.6786V13.4866L7.02798 15.5759L5.49986 19.5938C5.37002 19.9241 5.12782 20.1116 4.77325 20.1563C4.41869 20.2009 4.11656 20.1094 3.86687 19.8817C3.61717 19.654 3.55725 19.3705 3.68709 19.0313L4.51108 16.8884L1.7245 18.308C1.49479 18.4241 1.25508 18.4531 1.00539 18.3951C0.755695 18.3371 0.560936 18.2054 0.421108 18C0.291267 17.7946 0.258807 17.5781 0.323727 17.3505C0.388648 17.1228 0.535965 16.9509 0.765683 16.8348L3.55225 15.4018L1.05033 14.9598C0.760688 14.9063 0.550948 14.7768 0.421108 14.5714C0.291267 14.3661 0.248819 14.1585 0.293764 13.9487C0.338709 13.7388 0.466051 13.5603 0.675794 13.413C0.885537 13.2656 1.13523 13.2188 1.42487 13.2723L6.06916 14.1027L10.1292 12L6.06916 9.89733L1.42487 10.7277C1.38492 10.7366 1.32 10.7411 1.23011 10.7411C0.960443 10.7411 0.740715 10.6607 0.570923 10.5C0.401131 10.3393 0.306249 10.1607 0.286273 9.9643C0.266298 9.76786 0.32123 9.5759 0.451071 9.3884C0.580912 9.2009 0.780664 9.08483 1.05033 9.04019L3.55225 8.59822L0.765683 7.16519C0.535965 7.04911 0.388648 6.87724 0.323727 6.64956C0.258807 6.42188 0.291267 6.20537 0.421108 6.00001C0.550948 5.79465 0.745707 5.66072 1.00539 5.59822C1.26507 5.53572 1.50477 5.56697 1.7245 5.69197L4.51108 7.11162L3.68709 4.96876C3.55725 4.62947 3.61717 4.34599 3.86687 4.11831C4.11656 3.89063 4.41869 3.79911 4.77325 3.84376C5.12782 3.8884 5.37002 4.0759 5.49986 4.40626L7.02798 8.42412L11.088 10.5134V6.32144L7.97182 3.13394C7.81201 2.97322 7.72712 2.79912 7.71713 2.61162C7.70714 2.42411 7.76207 2.26117 7.88193 2.12277C8.00178 1.98438 8.1441 1.87278 8.3089 1.78795C8.4737 1.70313 8.65847 1.67858 8.86322 1.71429C9.06797 1.75001 9.25024 1.84822 9.41005 2.00894L11.088 3.72322V0.85715C11.088 0.625007 11.1829 0.424115 11.3726 0.254471C11.5624 0.0848296 11.7871 7.62939e-06 12.0468 7.62939e-06C12.3065 7.62939e-06 12.5312 0.0848296 12.721 0.254471C12.9107 0.424115 13.0056 0.625007 13.0056 0.85715V3.72322L14.6836 2.00894C14.8434 1.84822 15.0256 1.75001 15.2304 1.71429C15.4351 1.67858 15.6199 1.70313 15.7847 1.78795C15.9495 1.87278 16.0918 1.98438 16.2117 2.12277C16.3315 2.26117 16.3865 2.42411 16.3765 2.61162C16.3665 2.79912 16.2816 2.97322 16.1218 3.13394L13.0056 6.32144V10.5134L17.0656 8.42412L18.5937 4.40626C18.7236 4.0759 18.9658 3.8884 19.3204 3.84376C19.6749 3.79911 19.977 3.89063 20.2267 4.11831C20.4764 4.34599 20.5364 4.62947 20.4065 4.96876L19.5825 7.11162L22.3691 5.69197C22.5988 5.5759 22.8385 5.54688 23.0882 5.60492C23.3379 5.66296 23.5327 5.79465 23.6725 6.00001C23.8023 6.20537 23.8348 6.42188 23.7699 6.64956C23.705 6.87724 23.5576 7.04911 23.3279 7.16519L20.5413 8.59822L23.0433 9.04019C23.3129 9.08483 23.5127 9.2009 23.6425 9.3884C23.7724 9.5759 23.8273 9.76786 23.8073 9.9643C23.7874 10.1607 23.6925 10.3393 23.5227 10.5C23.3529 10.6607 23.1332 10.7411 22.8635 10.7411C22.7736 10.7411 22.7087 10.7366 22.6687 10.7277L18.0244 9.89733L13.9644 12L18.0244 14.1027L22.6687 13.2723C22.9584 13.2188 23.2081 13.2656 23.4178 13.413C23.6276 13.5603 23.7549 13.7388 23.7998 13.9487C23.8448 14.1585 23.8023 14.3661 23.6725 14.5714C23.5427 14.7768 23.3329 14.9063 23.0433 14.9598Z" fill="#777777"/>
</svg>
