<svg width="24" height="24" viewBox="0 0 24 24" fill="none" xmlns="http://www.w3.org/2000/svg">
<path fill-rule="evenodd" clip-rule="evenodd" d="M13.1753 5.25092L11.8076 4.52388V3.62814L12.1026 3.09422C12.1026 3.09422 11.9072 2.66269 12.2653 2.29918C12.6234 1.93566 13.1753 2.00535 13.1753 2.00535L14.5201 2.44313L15.0525 3.62814L14.5201 4.52388L13.1753 5.25092ZM7.02256 15.9519L9.95328 14.2901V12.2427L9.32117 11.0223C9.32117 11.0223 9.7399 10.036 8.97252 9.20506C8.20513 8.37416 7.02256 8.53347 7.02256 8.53347L4.14066 9.5341L3 12.2427L4.14066 14.2901L7.02256 15.9519ZM14.3124 10.5151L12.2999 11.2995L10.5786 10.1546C10.5786 10.1546 10.2546 9.22172 10.5786 8.30404C10.9025 7.38635 11.7297 7.14777 12.2999 7.14777C12.4798 7.14777 12.6368 7.13689 12.7772 7.12715C13.2288 7.09584 13.5086 7.07644 13.8262 7.46982C14.2427 7.98547 14.5886 8.76531 14.5886 9.22361C14.5886 9.63382 14.3124 10.5151 14.3124 10.5151ZM18.4904 3.85521L21.1737 4.98819C21.1737 4.98819 21.542 6.26112 21.542 6.85364C21.542 7.51564 21.0808 8.64207 20.5256 9.3869C20.102 9.95512 19.729 9.9271 19.1268 9.88186C18.9396 9.8678 18.7302 9.85208 18.4904 9.85208C17.7301 9.85208 16.6273 9.50747 16.1953 8.18192C15.7634 6.85637 16.1953 5.50884 16.1953 5.50884L18.4904 3.85521ZM19.0777 20.3756L14.8973 21.9995L11.2777 20.3756L9.95315 16.4879L11.9615 15.0758C11.9615 15.0758 12.5383 13.5774 13.2495 12.9605C13.9607 12.3436 15.7797 11.7639 15.7797 11.7639L19.3991 13.191L21.0784 16.9309L19.6571 18.4669L19.0777 20.3756Z" fill="#444444"/>
</svg>
