<svg width="20" height="21" viewBox="0 0 20 21" fill="none" xmlns="http://www.w3.org/2000/svg">
<circle cx="10" cy="10.0059" r="10" fill="#777777"/>
<path fill-rule="evenodd" clip-rule="evenodd" d="M8.07812 6.44976C8.48438 6.0439 8.6875 5.57041 8.6875 5.02927C8.6875 4.48813 8.48438 4.01464 8.07812 3.60878C7.67187 3.20293 7.19792 3 6.65625 3C6.11458 3 5.64063 3.20293 5.23438 3.60878C4.82812 4.01464 4.625 4.48813 4.625 5.02927C4.625 5.57041 4.82812 6.0439 5.23438 6.44976C5.64063 6.85561 6.11458 7.05854 6.65625 7.05854C7.19792 7.05854 7.67187 6.85561 8.07812 6.44976ZM10.1094 12.7405C10.1094 11.2016 9.76661 10.0052 9.08106 9.15121C8.3955 8.29723 7.55339 7.87024 6.55469 7.87024C5.55599 7.87024 4.71387 8.29723 4.02832 9.15121C3.34277 10.0052 3 11.2016 3 12.7405C3 13.4338 3.59244 13.9284 4.77734 14.2244C5.96224 14.5203 7.14713 14.5203 8.33203 14.2244C9.51693 13.9284 10.1094 13.4338 10.1094 12.7405ZM11.125 8.02243C11.5313 8.42828 12.0052 8.63121 12.5469 8.63121C13.0885 8.63121 13.5625 8.42828 13.9688 8.02243C14.375 7.61657 14.5781 7.14308 14.5781 6.60194C14.5781 6.0608 14.375 5.58731 13.9688 5.18145C13.5625 4.7756 13.0885 4.57267 12.5469 4.57267C12.0052 4.57267 11.5313 4.7756 11.125 5.18145C10.7187 5.58731 10.5156 6.0608 10.5156 6.60194C10.5156 7.14308 10.7187 7.61657 11.125 8.02243ZM12.4453 9.44292C11.8867 9.44292 11.362 9.59512 10.8711 9.89951C11.1758 10.745 11.3281 11.692 11.3281 12.7405C11.3281 13.8397 10.668 14.6514 9.34766 15.1756C9.85547 15.5984 10.6468 15.8605 11.7217 15.9619C12.7966 16.0634 13.7783 15.962 14.667 15.6576C15.5557 15.3532 16 14.905 16 14.3132C16 12.7743 15.6572 11.5779 14.9717 10.7239C14.2861 9.86991 13.444 9.44292 12.4453 9.44292Z" fill="white"/>
</svg>
