<svg width="24" height="24" viewBox="0 0 24 24" fill="none" xmlns="http://www.w3.org/2000/svg">
<path fill-rule="evenodd" clip-rule="evenodd" d="M19.4407 10.5583C19.4563 10.5723 19.472 10.5866 19.488 10.6009C20.0441 11.0994 20.8111 11.7172 22 11.7172V9.82065C21.4056 9.82065 21.0125 9.53889 20.5427 9.11623C20.5242 9.09968 20.5056 9.083 20.487 9.06621C19.9432 8.57738 19.3009 8 18.0403 8C16.7363 8 16.046 8.61772 15.4995 9.11623C15.0393 9.53889 14.7229 9.82065 14.0134 9.82065C13.3102 9.82065 13.0026 9.54387 12.5398 9.12746L12.5273 9.11623C11.9808 8.61772 11.3001 8 9.99616 8C8.70182 8 8.01151 8.61772 7.465 9.11623C7.00479 9.53889 6.69799 9.82065 5.9885 9.82065C5.29441 9.82065 4.99488 9.55099 4.54235 9.14356C4.5323 9.13452 4.52219 9.12541 4.51199 9.11623C3.96548 8.61772 3.17929 8 2 8V9.89652C2.58485 9.89652 2.99712 10.1783 3.46692 10.6009C3.4733 10.6068 3.4797 10.6126 3.48612 10.6184C4.02896 11.1138 4.6902 11.7172 5.97891 11.7172C7.27325 11.7172 7.96357 11.0994 8.51007 10.6009L8.52254 10.5897C8.98534 10.1733 9.29297 9.89652 9.99616 9.89652C10.6994 9.89652 11.007 10.1733 11.4698 10.5897L11.4823 10.6009C12.0288 11.0994 12.7095 11.7172 14.0134 11.7172C15.2995 11.7172 15.9798 11.1073 16.534 10.6104L16.5446 10.6009C17.0048 10.1783 17.3116 9.89652 18.0211 9.89652C18.7065 9.89652 18.9982 10.1594 19.4407 10.5583ZM19.488 14.9816C20.0441 15.4801 20.8111 16.0979 21.9904 16.0979H22V14.2014C21.4056 14.2014 21.0125 13.9196 20.5427 13.4969C20.5242 13.4804 20.5056 13.4637 20.487 13.4469C19.9432 12.9581 19.3009 12.3807 18.0403 12.3807C16.7363 12.3807 16.046 12.9984 15.4995 13.4969C15.0393 13.9196 14.7229 14.2014 14.0134 14.2014C13.3102 14.2014 13.0026 13.9246 12.5398 13.5082L12.5273 13.4969C11.9808 12.9984 11.3001 12.3807 9.99616 12.3807C8.70182 12.3807 8.0115 12.9984 7.465 13.4969C7.00479 13.9196 6.69799 14.2014 5.98849 14.2014C5.29441 14.2014 4.99488 13.9317 4.54235 13.5243C4.5323 13.5152 4.52218 13.5061 4.51198 13.4969C3.96548 12.9984 3.17929 12.3807 2 12.3807V14.2772C2.58485 14.2772 2.99712 14.559 3.46692 14.9816C3.4733 14.9875 3.4797 14.9933 3.48612 14.9991C4.02896 15.4945 4.6902 16.0979 5.97891 16.0979C7.27325 16.0979 7.96357 15.4801 8.51007 14.9816L8.52254 14.9704C8.98534 14.554 9.29297 14.2772 9.99616 14.2772C10.6994 14.2772 11.007 14.554 11.4698 14.9704L11.4823 14.9816C12.0288 15.4801 12.7095 16.0979 14.0134 16.0979C15.2995 16.0979 15.9798 15.488 16.534 14.9911L16.5446 14.9816C17.0048 14.559 17.3116 14.2772 18.0211 14.2772C18.7065 14.2772 18.9982 14.5401 19.4407 14.939C19.4563 14.953 19.472 14.9673 19.488 14.9816Z" fill="#444444"/>
</svg>
