<svg width="24" height="24" viewBox="0 0 24 24" fill="none" xmlns="http://www.w3.org/2000/svg">
<path fill-rule="evenodd" clip-rule="evenodd" d="M11.6604 3.42862L12.4351 3.84015L13.1969 3.42862L13.4984 2.92159L13.1969 2.25083L12.4351 2.00303C12.4351 2.00303 12.1225 1.96358 11.9197 2.16935C11.7168 2.37511 11.8275 2.61937 11.8275 2.61937L11.6604 2.92159V3.42862ZM10.6104 8.95619L8.95034 9.89684L7.31796 8.95619L6.67186 7.79727L7.31796 6.2641L8.95034 5.6977C8.95034 5.6977 9.62017 5.60752 10.0548 6.07785C10.4895 6.54817 10.2523 7.10648 10.2523 7.10648L10.6104 7.79727V8.95619ZM11.9398 7.26317L13.0797 6.81918C13.0797 6.81918 13.2362 6.32035 13.2362 6.08816C13.2362 5.82874 13.0403 5.38732 12.8044 5.09544C12.6245 4.87277 12.466 4.88375 12.2102 4.90148C12.1306 4.90699 12.0417 4.91315 11.9398 4.91315C11.6168 4.91315 11.1483 5.04819 10.9648 5.56764C10.7813 6.08709 10.9648 6.61515 10.9648 6.61515L11.9398 7.26317ZM16.9663 3.69111L15.4464 3.0498L14.1464 3.98582C14.1464 3.98582 13.9018 4.74858 14.1464 5.4989C14.3911 6.24921 15.0158 6.44427 15.4464 6.44427C15.5823 6.44427 15.7008 6.45317 15.8069 6.46113C16.148 6.48674 16.3593 6.5026 16.5992 6.18096C16.9137 5.75936 17.1749 5.12175 17.1749 4.74704C17.1749 4.41164 16.9663 3.69111 16.9663 3.69111ZM13.4111 13.321L15.779 12.4018L16.1072 11.3214L16.9123 10.452L15.9611 8.33504L13.911 7.52726C13.911 7.52726 12.8806 7.85542 12.4778 8.2046C12.0749 8.55378 11.7482 9.40196 11.7482 9.40196L10.6106 10.2012L11.3609 12.4018L13.4111 13.321ZM19.5495 16.8017L19.5047 16.7614C19.086 16.3842 18.8099 16.1356 18.1613 16.1356C17.4899 16.1356 17.1996 16.402 16.7641 16.8017L16.754 16.8107C16.2296 17.2806 15.5859 17.8573 14.3688 17.8573C13.1348 17.8573 12.4906 17.2732 11.9735 16.8017L11.9617 16.7911C11.5237 16.3973 11.2326 16.1356 10.5671 16.1356C9.90169 16.1356 9.61058 16.3973 9.17261 16.7911L9.16081 16.8017C8.64364 17.2732 7.99038 17.8573 6.76551 17.8573C5.54598 17.8573 4.92023 17.2867 4.40652 16.8183L4.38836 16.8017C3.94378 16.402 3.55363 16.1356 3.00017 16.1356V14.3421C4.11616 14.3421 4.86016 14.9262 5.37733 15.3977L5.40606 15.4235C5.83431 15.8088 6.11775 16.0638 6.77458 16.0638C7.44599 16.0638 7.73633 15.7974 8.17184 15.3977C8.68901 14.9262 9.34227 14.3421 10.5671 14.3421C11.8011 14.3421 12.4453 14.9262 12.9624 15.3977L12.9742 15.4083C13.4122 15.8021 13.7033 16.0638 14.3688 16.0638C15.0402 16.0638 15.3396 15.7974 15.7751 15.3977C16.2923 14.9262 16.9455 14.3421 18.1795 14.3421C19.3725 14.3421 19.9803 14.8881 20.4949 15.3504L20.5476 15.3977C20.9921 15.7974 21.3641 16.0638 21.9267 16.0638V17.8573C20.8016 17.8573 20.0758 17.2732 19.5495 16.8017ZM21.9174 21.9998C20.8014 21.9998 20.0756 21.4157 19.5493 20.9442L19.5046 20.9039C19.0858 20.5267 18.8097 20.2781 18.1612 20.2781C17.4898 20.2781 17.1994 20.5445 16.7639 20.9442L16.7539 20.9532C16.2295 21.4231 15.5857 21.9998 14.3686 21.9998C13.1347 21.9998 12.4905 21.4157 11.9733 20.9442L11.9615 20.9336C11.5235 20.5398 11.2324 20.2781 10.567 20.2781C9.90152 20.2781 9.61041 20.5398 9.17244 20.9336L9.16064 20.9442C8.64347 21.4157 7.99021 21.9998 6.76534 21.9998C5.54581 21.9998 4.92006 21.4292 4.40635 20.9608L4.38819 20.9442C3.9436 20.5445 3.55346 20.2781 3 20.2781V18.4846C4.11599 18.4846 4.85999 19.0687 5.37715 19.5402L5.40589 19.566C5.83413 19.9513 6.11758 20.2063 6.77441 20.2063C7.44582 20.2063 7.73616 19.9399 8.17167 19.5402C8.68884 19.0687 9.3421 18.4846 10.567 18.4846C11.8009 18.4846 12.4451 19.0687 12.9623 19.5402L12.9741 19.5508C13.412 19.9446 13.7032 20.2063 14.3686 20.2063C15.04 20.2063 15.3394 19.9399 15.7749 19.5402C16.2921 19.0687 16.9454 18.4846 18.1793 18.4846C19.3723 18.4846 19.9801 19.0306 20.4947 19.4929L20.5474 19.5402C20.992 19.9399 21.364 20.2063 21.9265 20.2063V21.9998H21.9174Z" fill="#444444"/>
</svg>
